HIERARCHY
ROOT joint_Root
{
	OFFSET 0.0 0.0 0.0
	CHANNELS 6 Xposition Yposition Zposition Zrotation Xrotation Yrotation 
	JOINT Hips
	{
		OFFSET -0.726466 93.3139 -2.00062
		CHANNELS 6 Xposition Yposition Zposition Zrotation Xrotation Yrotation 
		JOINT Spine
		{
			OFFSET 15.7357 0.0 0.0
			CHANNELS 6 Xposition Yposition Zposition Zrotation Xrotation Yrotation 
			JOINT Chest
			{
				OFFSET 8.98455 -0.406207 0.0
				CHANNELS 6 Xposition Yposition Zposition Zrotation Xrotation Yrotation 
				JOINT Neck
				{
					OFFSET 16.3773 0.0 0.0
					CHANNELS 6 Xposition Yposition Zposition Zrotation Xrotation Yrotation 
					JOINT Head
					{
						OFFSET 6.45672 0.0 0.0
						CHANNELS 6 Xposition Yposition Zposition Zrotation Xrotation Yrotation 
						End Site
						{
							OFFSET 0.0 0.0 0.0
						}
					}
				}
				JOINT Shoulder_L
				{
					OFFSET 12.9942 -0.242716 4.98039
					CHANNELS 6 Xposition Yposition Zposition Zrotation Xrotation Yrotation 
					JOINT UpperArm_L
					{
						OFFSET 5.34809 0.0 0.0
						CHANNELS 6 Xposition Yposition Zposition Zrotation Xrotation Yrotation 
						JOINT LowerArm_L
						{
							OFFSET 24.3286 1.87007e-05 0.0
							CHANNELS 6 Xposition Yposition Zposition Zrotation Xrotation Yrotation 
							JOINT Hand_L
							{
								OFFSET 22.2916 0.0 0.0
								CHANNELS 6 Xposition Yposition Zposition Zrotation Xrotation Yrotation 
								End Site
								{
									OFFSET 0.0 0.0 0.0
								}
							}
						}
					}
				}
				JOINT Shoulder_R
				{
					OFFSET 12.9945 -0.242716 -4.98039
					CHANNELS 6 Xposition Yposition Zposition Zrotation Xrotation Yrotation 
					JOINT UpperArm_R
					{
						OFFSET -5.34813 0.0 0.0
						CHANNELS 6 Xposition Yposition Zposition Zrotation Xrotation Yrotation 
						JOINT LowerArm_R
						{
							OFFSET -24.3289 0.000322201 0.0
							CHANNELS 6 Xposition Yposition Zposition Zrotation Xrotation Yrotation 
							JOINT Hand_R
							{
								OFFSET -22.2915 -0.000108084 0.0
								CHANNELS 6 Xposition Yposition Zposition Zrotation Xrotation Yrotation 
								End Site
								{
									OFFSET 0.0 0.0 0.0
								}
							}
						}
					}
				}
			}
		}
		JOINT UpperLeg_L
		{
			OFFSET -2.19248 -6.46944 0.0
			CHANNELS 6 Xposition Yposition Zposition Zrotation Xrotation Yrotation 
			JOINT LowerLeg_L
			{
				OFFSET 39.0811 0.0 -1.23785e-05
				CHANNELS 6 Xposition Yposition Zposition Zrotation Xrotation Yrotation 
				JOINT Foot_L
				{
					OFFSET 40.9854 0.0 -1.26872e-05
					CHANNELS 6 Xposition Yposition Zposition Zrotation Xrotation Yrotation 
					JOINT Toes_L
					{
						OFFSET 11.7543 0.0 0.0
						CHANNELS 6 Xposition Yposition Zposition Zrotation Xrotation Yrotation 
						End Site
						{
							OFFSET 0.0 0.0 0.0
						}
					}
				}
			}
		}
		JOINT UpperLeg_R
		{
			OFFSET -2.19251 6.46944 0.0
			CHANNELS 6 Xposition Yposition Zposition Zrotation Xrotation Yrotation 
			JOINT LowerLeg_R
			{
				OFFSET -39.0811 -0.00228153 -0.0401928
				CHANNELS 6 Xposition Yposition Zposition Zrotation Xrotation Yrotation 
				JOINT Foot_R
				{
					OFFSET -40.9854 0.0 0.0
					CHANNELS 6 Xposition Yposition Zposition Zrotation Xrotation Yrotation 
					JOINT Toes_R
					{
						OFFSET -11.7543 0.0 0.0
						CHANNELS 6 Xposition Yposition Zposition Zrotation Xrotation Yrotation 
						End Site
						{
							OFFSET 0.0 0.0 0.0
						}
					}
				}
			}
		}
	}
}
MOTION
Frames:	7
Frame Time:	0.0333333
0.000000 0.000000 0.000000 0.000000 0.000000 -0.000000 -1.643920 92.635100 -1.214170 87.832100 2.225730 1.318950 15.735700 0.000005 -0.000001 86.334200 86.197700 -87.805800 8.984550 -0.406207 -0.000000 -0.180123 -0.384090 -2.942080 16.377300 -0.000001 -0.000001 2.209200 -3.146950 2.931250 6.456720 -0.000001 -0.000000 1.343340 -2.417320 -4.903160 12.994200 -0.242716 4.980390 -89.640400 -1.047560 -71.051300 5.348090 -0.000007 -0.000001 -67.344400 32.193100 -14.858400 24.328600 0.000019 0.000005 0.968939 2.066420 -25.128200 22.291600 -0.000001 0.000005 6.260490 5.468220 -5.303950 12.994500 -0.242716 -4.980390 92.596500 -5.844520 -65.994400 -5.348130 -0.000001 -0.000004 -75.441100 -59.840500 -113.205000 -24.328900 0.000322 -0.000009 1.081860 2.005890 -28.360800 -22.291500 -0.000108 -0.000004 27.086100 5.459460 -4.968540 -2.192480 -6.469440 -0.000000 -175.015000 -5.081690 -5.049020 39.081100 -0.000007 -0.000012 -0.094142 0.247801 20.802300 40.985400 -0.000006 -0.000013 -0.803132 4.117670 -64.775900 11.754300 -0.000000 0.000003 -0.000024 -0.000294 -16.589000 -2.192510 6.469440 -0.000001 -178.440000 17.536400 178.435000 -39.081100 -0.002282 -0.040193 0.028937 -0.081018 17.542400 -40.985400 0.000008 0.000006 6.171010 5.188940 -64.754500 -11.754300 -0.000006 -0.000006 -0.005915 -0.070062 -19.424400
0.000000 0.000000 0.000000 0.000000 0.000000 -0.000000 -1.660080 92.636500 -1.231470 87.816400 2.351750 1.325700 15.735700 0.000005 -0.000001 86.342200 86.177500 -87.965300 8.984550 -0.406207 -0.000000 -0.139935 -0.375674 -3.244700 16.377300 -0.000001 -0.000001 2.211720 -2.968120 2.743260 6.456720 -0.000001 -0.000000 1.194150 -2.279510 -4.956420 12.994200 -0.242716 4.980390 -89.635900 -1.056480 -70.983500 5.348090 -0.000007 -0.000001 -67.441300 32.729000 -14.788100 24.328600 0.000019 0.000005 0.885298 1.838060 -25.722100 22.291600 -0.000001 0.000005 6.076230 5.472170 -5.451890 12.994500 -0.242716 -4.980390 92.586700 -5.832360 -66.031000 -5.348130 -0.000001 -0.000004 -80.738100 -59.002000 -115.288000 -24.328900 0.000322 -0.000009 0.656148 1.776440 -20.297400 -22.291500 -0.000108 -0.000004 26.150400 5.309220 -0.192003 -2.192480 -6.469440 -0.000000 -174.982000 -4.998120 -5.087860 39.081100 -0.000007 -0.000012 -0.095621 0.251482 20.818200 40.985400 -0.000006 -0.000013 -0.810292 4.170180 -64.755800 11.754300 -0.000000 0.000003 -0.000026 -0.000321 -16.590100 -2.192510 6.469440 -0.000001 -178.403000 17.597900 178.420000 -39.081100 -0.002282 -0.040193 0.029295 -0.082082 17.556600 -40.985400 0.000008 0.000006 6.186280 5.114790 -64.726700 -11.754300 -0.000006 -0.000006 -0.005942 -0.070308 -19.434500
0.000000 0.000000 0.000000 0.000000 0.000000 -0.000000 -1.657250 92.640900 -1.265950 87.781400 2.265850 1.310120 15.735700 0.000005 -0.000001 86.392300 86.173000 -88.129500 8.984550 -0.406207 -0.000000 -0.130255 -0.361856 -3.472690 16.377300 -0.000001 -0.000001 2.198620 -2.800060 2.613540 6.456720 -0.000001 -0.000000 1.170250 -2.157520 -4.850500 12.994200 -0.242716 4.980390 -89.648000 -1.017770 -70.922600 5.348090 -0.000007 -0.000001 -67.562800 33.312300 -14.590300 24.328600 0.000019 0.000005 0.841276 1.739810 -25.809900 22.291600 -0.000001 0.000005 6.008680 5.473280 -5.493130 12.994500 -0.242716 -4.980390 92.573700 -5.777050 -65.936500 -5.348130 -0.000001 -0.000004 -87.181600 -57.022000 -117.550000 -24.328900 0.000322 -0.000009 0.065430 0.212769 -17.335000 -22.291500 -0.000108 -0.000004 27.247800 5.004440 7.180460 -2.192480 -6.469440 -0.000000 -174.964000 -4.973350 -5.125720 39.081100 -0.000007 -0.000012 -0.094743 0.248979 20.833200 40.985400 -0.000006 -0.000013 -0.827700 4.043140 -64.745100 11.754300 -0.000000 0.000003 -0.000028 -0.000345 -16.591000 -2.192510 6.469440 -0.000001 -178.369000 17.619900 178.361000 -39.081100 -0.002282 -0.040193 0.029270 -0.081903 17.576500 -40.985400 0.000008 0.000006 6.223620 5.221750 -64.681800 -11.754300 -0.000006 -0.000006 -0.006137 -0.072073 -19.506500
0.000000 0.000000 0.000000 0.000000 0.000000 -0.000000 -1.633140 92.633800 -1.289100 87.757200 1.999170 1.365010 15.735700 0.000005 -0.000001 86.065700 86.152300 -87.833500 8.984550 -0.406207 -0.000000 -0.092559 -0.406689 -3.533630 16.377300 -0.000001 -0.000001 2.170110 -2.637120 2.452920 6.456720 -0.000001 -0.000000 1.261170 -2.019910 -4.869910 12.994200 -0.242716 4.980390 -89.651400 -1.004730 -70.861200 5.348090 -0.000007 -0.000001 -67.950600 33.780900 -14.148600 24.328600 0.000019 0.000005 0.902295 1.904610 -25.354900 22.291600 -0.000001 0.000005 5.874650 5.474560 -5.541530 12.994500 -0.242716 -4.980390 92.464100 -5.539500 -65.973100 -5.348130 -0.000001 -0.000004 -91.220400 -55.209100 -118.416000 -24.328900 0.000322 -0.000009 -1.140310 -3.556890 -17.765600 -22.291500 -0.000108 -0.000004 31.172100 4.730180 12.598200 -2.192480 -6.469440 -0.000000 -174.958000 -5.095590 -5.080360 39.081100 -0.000007 -0.000012 -0.095036 0.248724 20.911600 40.985400 -0.000006 -0.000013 -0.828461 3.915850 -64.796700 11.754300 -0.000000 0.000003 -0.000027 -0.000332 -16.590500 -2.192510 6.469440 -0.000001 -178.390000 17.530100 178.390000 -39.081100 -0.002282 -0.040193 0.029117 -0.081310 17.598600 -40.985400 0.000008 0.000006 6.236200 5.398770 -64.720200 -11.754300 -0.000006 -0.000006 -0.005998 -0.070814 -19.455100
0.000000 0.000000 0.000000 0.000000 0.000000 -0.000000 -1.563170 92.611000 -1.281700 87.745100 1.418580 1.461280 15.735700 0.000005 -0.000001 85.666700 86.135200 -87.365200 8.984550 -0.406207 -0.000000 -0.063174 -0.467900 -3.395070 16.377300 -0.000001 -0.000001 2.202420 -2.504960 2.293560 6.456720 -0.000001 -0.000000 1.343360 -1.768390 -5.081270 12.994200 -0.242716 4.980390 -89.638800 -1.040530 -70.855900 5.348090 -0.000007 -0.000001 -68.657500 34.051400 -13.302700 24.328600 0.000019 0.000005 1.060030 2.316130 -24.600200 22.291600 -0.000001 0.000005 5.610720 5.468550 -5.316120 12.994500 -0.242716 -4.980390 92.409700 -5.440490 -66.066300 -5.348130 -0.000001 -0.000004 -91.744500 -53.880900 -117.043000 -24.328900 0.000322 -0.000009 -2.039460 -5.309730 -21.036800 -22.291500 -0.000108 -0.000004 33.937400 4.718980 12.815700 -2.192480 -6.469440 -0.000000 -174.981000 -5.425460 -4.962760 39.081100 -0.000007 -0.000012 -0.097111 0.252009 21.074100 40.985400 -0.000006 -0.000013 -0.822520 3.672010 -64.939700 11.754300 -0.000000 0.000003 -0.000023 -0.000287 -16.588800 -2.192510 6.469440 -0.000001 -178.475000 17.226500 178.457000 -39.081100 -0.002282 -0.040193 0.029493 -0.082125 17.673400 -40.985400 0.000008 0.000006 6.211080 5.652980 -64.858900 -11.754300 -0.000006 -0.000006 -0.006189 -0.072547 -19.525800
0.000000 0.000000 0.000000 0.000000 0.000000 -0.000000 -1.463130 92.614800 -1.286220 87.701200 0.712432 1.529540 15.735700 0.000005 -0.000001 85.051500 86.117300 -86.598200 8.984550 -0.406207 -0.000000 -0.035242 -0.564436 -3.091690 16.377300 -0.000001 -0.000001 2.165760 -2.420330 2.224020 6.456720 -0.000001 -0.000000 1.429830 -1.653750 -5.251330 12.994200 -0.242716 4.980390 -89.619600 -1.097420 -70.878900 5.348090 -0.000007 -0.000001 -69.424200 34.320500 -12.409800 24.328600 0.000019 0.000005 1.166830 2.681030 -23.530000 22.291600 -0.000001 0.000005 5.421750 5.459360 -4.977370 12.994500 -0.242716 -4.980390 92.354100 -5.376100 -66.309400 -5.348130 -0.000001 -0.000004 -87.816500 -53.942400 -113.376000 -24.328900 0.000322 -0.000009 -2.497520 -5.175290 -25.799600 -22.291500 -0.000108 -0.000004 33.827200 4.851720 10.325100 -2.192480 -6.469440 -0.000000 -175.009000 -5.746690 -4.764710 39.081100 -0.000007 -0.000012 -0.095567 0.248216 21.057400 40.985400 -0.000006 -0.000013 -0.816761 3.320080 -65.008400 11.754300 -0.000000 0.000003 -0.000029 -0.000350 -16.591200 -2.192510 6.469440 -0.000001 -178.521000 16.766200 178.497000 -39.081100 -0.002282 -0.040193 0.029545 -0.082293 17.672400 -40.985400 0.000008 0.000006 6.236810 5.887150 -64.830400 -11.754300 -0.000006 -0.000006 -0.006000 -0.070835 -19.456000
0.000000 0.000000 0.000000 0.000000 0.000000 -0.000000 -1.343520 92.608800 -1.303890 87.683800 -0.057698 1.538690 15.735700 0.000005 -0.000001 85.033100 86.115300 -86.398300 8.984550 -0.406207 -0.000000 -0.031277 -0.579638 -2.728790 16.377300 -0.000001 -0.000001 2.088180 -2.458320 2.300840 6.456720 -0.000001 -0.000000 1.425880 -1.722390 -5.431020 12.994200 -0.242716 4.980390 -89.596900 -1.167500 -70.951900 5.348090 -0.000007 -0.000001 -70.052900 34.601300 -11.701200 24.328600 0.000019 0.000005 1.314580 3.237130 -22.117700 22.291600 -0.000001 0.000005 5.243860 5.456250 -4.864570 12.994500 -0.242716 -4.980390 92.286400 -5.252710 -66.436600 -5.348130 -0.000001 -0.000004 -82.113400 -54.417900 -109.994000 -24.328900 0.000322 -0.000009 -2.578960 -4.315900 -30.893100 -22.291500 -0.000108 -0.000004 32.948000 4.948710 8.388100 -2.192480 -6.469440 -0.000000 -175.078000 -6.222070 -4.675660 39.081100 -0.000007 -0.000012 -0.095501 0.247312 21.114500 40.985400 -0.000006 -0.000013 -0.785791 3.001720 -65.094600 11.754300 -0.000000 0.000003 -0.000031 -0.000371 -16.592000 -2.192510 6.469440 -0.000001 -178.585000 16.218300 178.443000 -39.081100 -0.002282 -0.040193 0.029874 -0.083111 17.715400 -40.985400 0.000008 0.000006 6.196000 6.124770 -64.857000 -11.754300 -0.000006 -0.000006 -0.006248 -0.073074 -19.547300
